<svg width="53" height="21" viewBox="0 0 53 21" fill="none" xmlns="http://www.w3.org/2000/svg">
<path d="M44.7613 0V20.1228H48.3803V0H44.7613ZM0 0.284964V4.09252H3.80756V0.282772L0 0.284964ZM21.4381 1.05656V14.3249C21.4381 15.4494 21.5345 16.3964 21.723 17.157C21.9137 17.9023 22.2382 18.5117 22.6875 18.972C23.1325 19.4324 23.7287 19.759 24.4477 19.9606C25.1799 20.1645 26.1005 20.2587 27.1987 20.2587H27.6722V16.8984C27.1461 16.8984 26.6968 16.8721 26.3723 16.8173C26.0537 16.7871 25.7536 16.654 25.5174 16.438C25.3096 16.2078 25.1773 15.9194 25.1382 15.6116C25.0776 15.1715 25.0505 14.7275 25.0571 14.2833V9.50026H27.6722V6.39634H25.0571V1.05656H21.4381ZM13.755 6.12453C12.887 6.12453 12.0891 6.2999 11.3832 6.65281C10.6664 7.00573 10.068 7.49455 9.58137 8.11709L9.39066 8.37356V6.39634H5.82642V20.1097H9.41916V13.0645C9.45862 11.7756 9.76988 10.8286 10.3683 10.2171C11.004 9.56602 11.7756 9.2416 12.6568 9.2416C13.7002 9.2416 14.5003 9.56822 15.0286 10.1908C15.5437 10.8133 15.8155 11.6945 15.8155 12.8212V20.1075H19.4609V12.3302C19.474 10.3793 18.9589 8.83388 17.9571 7.74883C16.9532 6.66377 15.5459 6.12234 13.755 6.12234V6.12453ZM35.8178 6.13769C34.8803 6.13395 33.9512 6.31518 33.0838 6.67101C32.2164 7.02684 31.4278 7.55028 30.763 8.21135C30.1273 8.84704 29.6122 9.60767 29.2461 10.4757C28.8685 11.357 28.6788 12.3074 28.6893 13.2662C28.6893 14.257 28.8647 15.1908 29.2176 16.0588C29.5705 16.9247 30.0725 17.6853 30.695 18.321C31.3176 18.9567 32.0913 19.474 32.9857 19.8401C33.88 20.2193 34.8708 20.41 35.9274 20.41C38.9897 20.41 40.8858 19.0137 42.0256 17.7138L39.4237 15.7322C38.8801 16.3832 37.5802 17.2644 35.9537 17.2644C34.9366 17.2644 34.0971 17.0343 33.4592 16.5608C32.8208 16.0903 32.3622 15.416 32.1593 14.6493L32.1176 14.5266H42.8915V13.2399C42.8915 12.2513 42.7161 11.3284 42.3764 10.4626C42.0349 9.62603 41.5439 8.85871 40.9274 8.1982C40.2946 7.5439 39.5334 7.02746 38.6915 6.68131C37.7799 6.30895 36.8025 6.12407 35.8178 6.13769V6.13769ZM0.0942574 6.39634V20.1097H3.7133V6.39634H0.0942574ZM35.7761 9.2153C38.2575 9.2153 39.4237 10.9623 39.4237 11.9663L32.1461 11.9794C32.1461 10.9755 33.297 9.22845 35.7761 9.2153ZM51.2804 17.5757C51.1059 17.5757 50.9332 17.6101 50.772 17.6768C50.6109 17.7436 50.4644 17.8414 50.3411 17.9648C50.2177 18.0881 50.1199 18.2346 50.0531 18.3957C49.9864 18.5569 49.952 18.7296 49.952 18.9041C49.952 19.0785 49.9864 19.2513 50.0531 19.4124C50.1199 19.5736 50.2177 19.72 50.3411 19.8434C50.4644 19.9667 50.6109 20.0646 50.772 20.1313C50.9332 20.1981 51.1059 20.2324 51.2804 20.2324C51.6327 20.2324 51.9706 20.0925 52.2197 19.8434C52.4688 19.5943 52.6088 19.2564 52.6088 18.9041C52.6088 18.5518 52.4688 18.2139 52.2197 17.9648C51.9706 17.7157 51.6327 17.5757 51.2804 17.5757ZM51.2629 17.8059C51.2643 17.8059 51.2658 17.8059 51.2672 17.8059C51.4114 17.8059 51.5541 17.8343 51.6872 17.8895C51.8203 17.9447 51.9412 18.0256 52.043 18.1277C52.1448 18.2297 52.2255 18.3507 52.2805 18.484C52.3354 18.6172 52.3635 18.76 52.3633 18.9041C52.3633 19.048 52.3349 19.1905 52.2798 19.3235C52.2247 19.4565 52.144 19.5773 52.0422 19.6791C51.9405 19.7808 51.8196 19.8616 51.6867 19.9167C51.5537 19.9717 51.4112 20.0001 51.2672 20.0001C50.9766 20.0001 50.6978 19.8846 50.4922 19.6791C50.2867 19.4735 50.1712 19.1948 50.1712 18.9041C50.1712 18.6142 50.2861 18.336 50.4907 18.1306C50.6953 17.9252 50.9729 17.8092 51.2629 17.8081V17.8059ZM50.7521 18.1456V19.6779H51.0371V19.0531H51.2409L51.6202 19.6779H51.9183L51.5237 19.0268C51.6217 19.0176 51.7132 18.9741 51.7824 18.9041C51.8481 18.8383 51.892 18.7419 51.892 18.606C51.892 18.4569 51.8481 18.3495 51.7539 18.2684C51.6728 18.1851 51.5237 18.1456 51.3483 18.1456H50.7521ZM51.0371 18.3626H51.3746C51.4163 18.3626 51.4558 18.3758 51.4974 18.3889C51.5323 18.4001 51.5614 18.4245 51.5785 18.4569C51.607 18.4854 51.6048 18.5249 51.6048 18.5797C51.6054 18.6213 51.5964 18.6626 51.5785 18.7002C51.555 18.7267 51.5276 18.7496 51.4974 18.7682C51.4558 18.7813 51.4163 18.7967 51.3746 18.7967H51.0371V18.3626Z" fill="white"/>
</svg>
