<svg width="49" height="32" viewBox="0 0 49 32" fill="none" xmlns="http://www.w3.org/2000/svg">
<path d="M18.0378 9.54346V6.66062C18.322 6.64399 18.6047 6.63039 18.8889 6.63039C26.7937 6.37793 31.9743 13.4255 31.9743 13.4255C31.9743 13.4255 26.3855 21.1882 20.384 21.1882C19.5929 21.1884 18.8067 21.0639 18.0544 20.8194V12.0559C21.1323 12.4324 21.7551 13.7868 23.5888 16.8677L27.6992 13.4104C27.6992 13.4104 24.6999 9.47392 19.6372 9.47392C19.1036 9.46652 18.5701 9.49025 18.0393 9.54497L18.0378 9.54346ZM18.0378 0V4.30688L18.8889 4.26002C29.8715 3.88058 37.0537 13.2683 37.0537 13.2683C37.0537 13.2683 28.8254 23.2744 20.26 23.2744C19.5208 23.2744 18.7861 23.2033 18.0544 23.0794V25.7475C18.6606 25.8186 19.2819 25.873 19.8881 25.873C27.8639 25.873 33.6372 21.7959 39.226 16.9841C40.1466 17.7324 43.9426 19.5359 44.7286 20.3159C39.424 24.7725 27.0461 28.3462 20.0317 28.3462C19.3768 28.3482 18.7222 28.3139 18.0711 28.2434V32H48.3764V0H18.0378ZM18.0378 20.8194V23.0945C10.6606 21.7778 8.61225 14.1028 8.61225 14.1028C8.61225 14.1028 12.1557 10.189 18.0378 9.54346V12.0393H18.0212C14.9358 11.6629 12.5185 14.5503 12.5185 14.5503C12.5185 14.5503 13.8896 19.4074 18.0378 20.8194V20.8194ZM4.95238 13.7793C4.95238 13.7793 9.31368 7.33938 18.0544 6.66213V4.30839C8.36886 5.09599 0 13.2834 0 13.2834C0 13.2834 4.74074 26.9917 18.0378 28.2434V25.7475C8.28269 24.5336 4.95238 13.7793 4.95238 13.7793V13.7793Z" fill="#72B200"/>
</svg>
