<svg width="118" height="118" viewBox="0 0 118 118" fill="none" xmlns="http://www.w3.org/2000/svg">
<circle cx="59" cy="58.9998" r="56" fill="#443B29" stroke="#A0895B" stroke-width="6"/>
<path d="M41.6211 21.0274H50.6274H67.4653C79.8 24.9432 79.9958 36.8863 80.5832 45.6968C81.165 54.425 76.559 57.7731 74.379 59.3577L74.3179 59.4021C72.5949 60.6552 69.0316 61.6211 67.4653 61.9474C72.0076 72.2851 91.2863 90.5326 100.358 98.3642L103.491 104.042L95.0716 106L89.981 105.021C84.9688 102.515 62.5705 82.44 51.9979 72.7158L46.1242 62.7305L49.0611 55.8779H58.6547C61.4741 55.8779 64.5284 49.7432 65.7032 46.6758C66.2905 38.6484 61.7874 33.7537 56.6968 32.7747C52.6244 31.9916 44.9495 35.1895 41.6211 36.8863L27.5242 32.7747L24 15.5453L27.5242 13L41.6211 21.0274Z" fill="#FFFDF9"/>
<path d="M32.4191 104.238V33.1663H48.0822V79.1768L49.8443 82.1136V85.2463L35.3559 106L32.4191 104.238Z" fill="#FFFDF9"/>
</svg>
